{"accessors" : [{"bufferView" : 0, "byteOffset" : 0, "componentType" : 5123, "count" : 24, "type" : "SCALAR", "max" : [23], "min" : [0]}, {"bufferView" : 1, "byteOffset" : 0, "componentType" : 5126, "count" : 24, "type" : "VEC3", "max" : [1.058420181274414, 0.4382483959197998, 2.0968918800354004], "min" : [-2.0968918800354004, -0.4382483959197998, -1.058420181274414], "name" : "POSITION"}, {"bufferView" : 1, "byteOffset" : 12, "componentType" : 5126, "count" : 24, "type" : "VEC3", "max" : [0.33501502871513367, 0.9421422481536865, 0.38610193133354187], "min" : [-0.38610193133354187, -0.9421422481536865, -0.33501502871513367], "name" : "NORMAL"}, {"bufferView" : 1, "byteOffset" : 24, "componentType" : 5126, "count" : 24, "type" : "VEC2", "max" : [1, 1], "min" : [0, 0], "name" : "TEXCOORD_0"}, {"bufferView" : 0, "byteOffset" : 48, "componentType" : 5123, "count" : 24, "type" : "SCALAR", "max" : [23], "min" : [0]}, {"bufferView" : 2, "byteOffset" : 0, "componentType" : 5126, "count" : 24, "type" : "VEC3", "max" : [0.9722840785980225, 0.4382483959197998, 1.193129062652588], "min" : [-1.193129062652588, -0.4382483959197998, -0.9722840785980225], "name" : "POSITION"}, {"bufferView" : 2, "byteOffset" : 12, "componentType" : 5126, "count" : 24, "type" : "VEC3", "max" : [0.5249938368797302, 0.8435900807380676, 0.9516931772232056], "min" : [-0.9516931772232056, -0.8435900807380676, -0.5249938368797302], "name" : "NORMAL"}, {"bufferView" : 2, "byteOffset" : 24, "componentType" : 5126, "count" : 24, "type" : "VEC2", "max" : [1, 1], "min" : [0, 0], "name" : "TEXCOORD_0"}], "asset" : {"generator" : "Aspose.3D 23.6.0", "version" : "2.0"}, "buffers" : [{"uri" : "data:application/octet-stream;base64,", "byteLength" : 1644}], "bufferViews" : [{"buffer" : 0, "byteOffset" : 0, "byteLength" : 96, "target" : 34963}, {"buffer" : 0, "byteOffset" : 100, "byteLength" : 768, "byteStride" : 32, "target" : 34962}, {"buffer" : 0, "byteOffset" : 872, "byteLength" : 768, "byteStride" : 32, "target" : 34962}], "meshes" : [{"primitives" : [{"attributes" : {"POSITION" : 1, "NORMAL" : 2, "TEXCOORD_0" : 3}, "indices" : 0, "mode" : 4}]}, {"primitives" : [{"attributes" : {"POSITION" : 5, "NORMAL" : 6, "TEXCOORD_0" : 7}, "indices" : 4, "mode" : 4}]}], "nodes" : [{"matrix" : [0.707106740574643, -0.7071068599081975, 3.8938612334504796E-08, 0, 3.8938612334504796E-08, -1.0813396933428976E-07, -1.0000000920050667, 0, 0.7071068599081975, 0.7071068325797114, -7.587616579485257E-08, 0, 0, 0, 0, 1], "mesh" : 0, "name" : "Plane"}, {"matrix" : [0.707106740574643, -0.7071068599081975, 3.8938612334504796E-08, 0, 3.8938612334504796E-08, -1.0813396933428976E-07, -1.0000000920050667, 0, 0.7071068599081975, 0.7071068325797114, -7.587616579485257E-08, 0, 0, -1.3449431657791138, 0, 1], "mesh" : 1, "name" : "Plane.001"}], "scene" : 0, "scenes" : [{"nodes" : [0, 1]}]}